<svg width="161" height="32"  viewBox="0 0 395 80" fill="none" xmlns="http://www.w3.org/2000/svg">
<path d="M305.67 35.54C307.231 35.5039 308.743 34.987 310 34.06L341.27 6.3C341.734 5.90285 342.324 5.68458 342.935 5.68458C343.546 5.68458 344.136 5.90285 344.6 6.3L375.86 34.06C377.119 34.989 378.635 35.5059 380.2 35.54H390.3C391.77 35.54 392.12 34.94 391.08 34.19L344.82 1.3C344.258 0.937858 343.604 0.74527 342.935 0.74527C342.266 0.74527 341.612 0.937858 341.05 1.3L294.79 34.19C293.79 34.94 294.1 35.54 295.57 35.54H305.67Z" fill="#1D1D1B"/>
<path d="M65.4 68.46V52.24C65.4 45.08 61.67 41.04 53.82 41.04C51.4072 41.0507 49.0373 41.6794 46.9366 42.8664C44.8358 44.0533 43.0743 45.7587 41.82 47.82C40 43.25 36.23 41 31.43 41C25.8 41 21.76 43.52 18.94 48.24H18.79V42.19H1.12001V48.28H4.12001C6.34001 48.28 6.87001 49.42 6.87001 51.55V68.46C6.87001 70.59 6.34001 71.74 4.12001 71.74H0.890015V77.83H23.51V71.74H22.29C20.08 71.74 19.55 71.05 19.55 69.98V54.75C19.55 51.17 20.92 47.89 25.03 47.89C29.38 47.89 29.83 50.64 29.83 54.44V68.44C29.83 70.8 29.3 71.72 27.09 71.72H26V77.81H46.2V71.72H45.2C42.83 71.72 42.46 71.41 42.46 69.96V53.61C42.46 50.26 43.82 47.89 47.94 47.89C51.44 47.89 52.74 51.79 52.74 54.44V68.44C52.74 70.57 52.2 71.72 50 71.72H48.87V77.81H70.73V71.72H68.14C65.93 71.72 65.4 70.57 65.4 68.44V68.46Z" fill="#1D1D1B"/>
<path d="M133.36 27.33H114.48V33.43H118C120.21 33.43 120.74 34.57 120.74 36.7V68.46C120.74 70.59 120.21 71.74 118 71.74H112.65C110.44 71.74 109.91 70.59 109.91 68.46V42.19H91.15V48.28H94.51C96.71 48.28 97.25 49.42 97.25 51.55V65.64C97.25 68.84 95.04 72.12 91.54 72.12C85.67 72.12 85.67 70.06 85.67 64.65V42.19H67.77V48.28H70.29C72.5 48.28 73.03 49.42 73.03 51.55V67C73.03 75.23 75.92 79 84.61 79C90.78 79 94.35 76.87 97.71 72H97.86V77.87H139.23V71.78H136.11C133.9 71.78 133.36 70.63 133.36 68.5V27.33Z" fill="#1D1D1B"/>
<path d="M190.42 71.74C188.21 71.74 187.67 70.59 187.67 68.46V42.19H153.87V28H146.33C145.72 34.32 143.74 42.17 136.12 42.17V48.26H141.22V67.4C141.22 75.16 145.57 78.97 153.41 78.97C162.55 78.97 166.2 74.86 166.2 67.4V60.62H160.11V66.55C160.11 70.06 159.35 72.12 156.46 72.12C154.71 72.12 153.87 70.82 153.87 69.22V48.28H172.29C174.5 48.28 175.03 49.42 175.03 51.55V68.46C175.03 70.59 174.5 71.74 172.29 71.74H169V77.83H193.53V71.74H190.42Z" fill="#1D1D1B"/>
<path d="M187.68 33.73C187.791 35.0064 187.514 36.2865 186.884 37.4026C186.255 38.5188 185.304 39.4189 184.155 39.9851C183.005 40.5514 181.712 40.7573 180.444 40.576C179.175 40.3947 177.991 39.8345 177.047 38.9689C176.102 38.1033 175.441 36.9726 175.15 35.725C174.859 34.4773 174.952 33.1708 175.416 31.9766C175.88 30.7824 176.693 29.7561 177.751 29.0323C178.808 28.3085 180.059 27.9208 181.34 27.92C182.951 27.8522 184.522 28.4257 185.711 29.5148C186.899 30.6038 187.607 32.1197 187.68 33.73Z" fill="#1D1D1B"/>
<path d="M341.3 23.46H332.95V15.12H341.3V23.46Z" fill="white"/>
<path d="M351.83 23.46H343.49V15.12H351.83V23.46Z" fill="white"/>
<path d="M341.3 33.6H332.95V25.25H341.3V33.6Z" fill="white"/>
<path d="M351.83 33.6H343.49V25.25H351.83V33.6Z" fill="white"/>
<path d="M297.08 50.11C297.08 47.52 301.08 47.11 302.77 47.11C304.819 47.0536 306.842 47.5845 308.6 48.64C310.39 49.706 311.73 51.3875 312.37 53.37H318V42H312.9L312 44.24C308.526 42.1914 304.582 41.0753 300.55 41C293.17 41 284.01 43.9 284.01 53C284.01 67 306.91 63.07 306.91 69.47C306.91 72.83 302.77 72.83 300.63 72.83C296.49 72.83 291.17 69.47 290.63 64.97H284.57V71.69H282.7C280.56 71.69 280.04 70.54 280.04 68.41V42.19H261.72V48.29H265.12C267.26 48.29 267.78 49.43 267.78 51.57V68.5C267.78 70.63 267.26 71.78 265.12 71.78H261.94V77.88H290.06L291.17 75.59C295.01 78.33 299.59 79.02 304.17 79.02C311.78 79.02 319.98 75.82 319.98 66.59C319.98 51.72 297.08 56.67 297.08 50.11Z" fill="white"/>
<path d="M212.75 55.3C212.75 59.3 215.7 60.87 219.25 60.87C223.38 60.87 225.82 57.43 225.82 53.4C225.82 45 218.43 41 210.53 41C201.07 41 192.21 47.26 192.21 60C192.21 72.74 199.53 79 210.53 79C218.8 79 225.53 75.26 225.82 65.5H218.51C218.13 69.01 216.36 72.44 212.51 72.44C207.42 72.44 205.27 68.55 205.27 59.78C205.27 51.01 208.74 47.12 212.51 47.12C213.626 47.0915 214.734 47.3098 215.756 47.7593C216.777 48.2087 217.687 48.8782 218.42 49.72C215.1 49.72 212.74 51.77 212.74 55.28L212.75 55.3Z" fill="white"/>
<path d="M245.32 41C234.7 41 226.92 47.79 226.92 60C226.92 72.21 234.7 79 245.32 79C255.94 79 263.73 72.21 263.73 60C263.73 47.79 256 41 245.32 41ZM245.32 72.88C241.04 72.88 239.55 68.99 239.55 59.99C239.55 50.99 241.04 47.1 245.32 47.1C249.6 47.1 251.11 51 251.11 60C251.11 69 249.61 72.89 245.32 72.89V72.88Z" fill="white"/>
<path d="M371.85 50.11C371.85 47.52 375.85 47.11 377.53 47.11C379.583 47.0534 381.609 47.5842 383.37 48.64C385.159 49.7044 386.497 51.3869 387.13 53.37H392.75V42H387.65L386.77 44.29C383.301 42.2239 379.357 41.0905 375.32 41C367.93 41 358.77 43.9 358.77 53C358.77 67 381.67 63.07 381.67 69.47C381.67 72.83 377.53 72.83 375.39 72.83C371.26 72.83 365.94 69.47 365.39 64.97H358.79V66.48C358.79 70.75 357.97 71.74 356.35 71.74C355.17 71.74 354.95 70.9 354.95 68.74V54.61C354.95 43.48 349.48 41.04 339.36 41.04C333.36 41.04 322.23 42.26 322.23 50.72C322.23 54.31 325.18 56.37 328.65 56.37C331.65 56.37 334.49 54.92 334.49 51.57C334.49 48.89 332.05 47.67 329.83 47.37V47.22C331.595 46.1805 333.624 45.6767 335.67 45.77C339.73 45.77 342.83 47.44 342.83 52.48C342.83 62.48 320.89 54 320.89 68.42C320.89 76.2 325.26 79.02 332.27 79.02C334.463 79.104 336.643 78.6557 338.625 77.7136C340.607 76.7715 342.331 75.3635 343.65 73.61C344.83 77.27 348.3 79.02 351.84 79.02C355.18 79.02 357.6 78.62 359.33 77.64V77.84H364.87L365.98 75.59C369.82 78.33 374.4 79.02 378.98 79.02C386.59 79.02 394.78 75.82 394.78 66.59C394.78 51.72 371.89 56.67 371.89 50.11H371.85ZM342.65 65.45C342.65 68.65 341.54 71.85 337.33 71.85C335.04 71.85 333.12 70.71 333.12 67.58C333.12 62.85 339.12 62.39 342.65 60.26V65.45Z" fill="white"/>
<path d="M273.7 39.54C274.827 39.441 275.901 39.0164 276.79 38.3178C277.68 37.6192 278.347 36.6768 278.711 35.6055C279.074 34.5343 279.118 33.3805 278.837 32.2847C278.556 31.1889 277.963 30.1985 277.129 29.4342C276.295 28.6699 275.257 28.1648 274.14 27.9803C273.024 27.7959 271.879 27.9402 270.843 28.3956C269.808 28.8509 268.927 29.5977 268.308 30.5449C267.69 31.4921 267.36 32.5988 267.36 33.73C267.433 35.3403 268.141 36.8562 269.329 37.9452C270.518 39.0343 272.089 39.6078 273.7 39.54Z" fill="white"/>
</svg>
