<?xml version="1.0" encoding="UTF-8"?>
<svg xmlns="http://www.w3.org/2000/svg" version="1.1" viewBox="0 0 1126.7 435.1">
  <defs>
    <style>
      .cls-1 {
        fill: #fff;
      }
    </style>
  </defs>
  <!-- Generator: Adobe Illustrator 28.6.0, SVG Export Plug-In . SVG Version: 1.2.0 Build 709)  -->
  <g>
    <g id="Camada_1">
      <g>
        <g>
          <path class="cls-1" d="M437.6,151.1c-28,19.2-48.9,38.1-59.8,54.1-1.4,2.4-2.5,5.3-1.8,8.6.8,4.3,5.3,6.2,5.3,6.2.2-1.7.9-3.3,1.7-4.7,10.6-15.7,30.9-34,58.1-52.9-1.3-3.7-2.5-7.5-3.5-11.4"/>
          <path class="cls-1" d="M740,51.2c-1.8-3.6-5.4-5-8.8-5.3-19.7-1.9-45.5.9-75.4,8,2.2,3.2,4.2,6.5,6,9.9,30.4-7.2,56.3-10.1,74.6-7.8,2.7.4,4.5,1.2,4.5,1.2.1-1.5.2-4-.8-6.1"/>
          <path class="cls-1" d="M582.8,195.3c-30,13.7-59.2,24.3-86.1,32,17.3,9.5,37.1,14.9,58.2,14.9,58.3,0,106.9-41.2,118.5-96-26.5,17.2-57.7,34.1-90.7,49.1"/>
          <path class="cls-1" d="M756,50c9.3,38.4-72.6,98.3-169,142.1-110.6,50.3-209.9,60-222.6,32-.2-.5-.4-.9-.5-1.4,0,0-1.4,20.6,25.3,26.1,40.7,8.1,117.4-4.1,203.6-43.3,78.2-35.6,143.4-80.7,164.6-119.6,9.7-17.9,2.4-33.3-1.3-35.9"/>
          <polygon class="cls-1" points="552 137.8 571.9 137.8 604.5 137.8 595.7 72.4 552 137.8"/>
          <path class="cls-1" d="M618.2,148.8c-.3.4-.8.6-1.2.6h-35.4c0,0-7.3,27.4-7.3,27.4,0,0,0,0,0,.1v.2s0,0,0,0c-.4,1-1.4,1.8-2.4,1.8h-8.8c-1,0-1.6-.8-1.5-1.8,0,0,0,0,0,0v-.3c0,0,7.4-27.4,7.4-27.4h-46.4s-7.3,27.5-7.3,27.5c0,0,0,0,0,.1v.2s0,0,0,0c-.4,1-1.4,1.8-2.4,1.8h-8.8c-1,0-1.7-.8-1.5-1.7h0v-.3c0,0,7.3-27.4,7.3-27.4h-35.5c-.4,0-.8-.2-.9-.5-.2-.4,0-.8.2-1.2l68.1-98.5c.3-.5.9-.8,1.5-.8s.9.3,1,.8l9.2,56.2-10,14.5-6.6-47.4-43.7,65.3h46.6s61.3-88.6,61.3-88.6c.3-.5.9-.8,1.4-.8s.9.4,1,.8l15.6,98.4c0,.4-.1.8-.5,1.2M555,0c-66.9,0-121.1,54.2-121.1,121.1s18.5,73.8,47.2,95.9c29.5-7.5,63-19.5,99.5-35.9,34.5-15.5,68.5-35.2,95.4-54.4,0-1.9.2-3.7.2-5.6,0-66.9-54.2-121.1-121.1-121.1"/>
        </g>
        <g>
          <path class="cls-1" d="M0,430.1l.9-24.7c10.4,4.8,22.3,7.2,35.7,7.2s9.9-.9,13.8-2.7,6-4.9,6-9.2-1.5-6.2-4.5-8.1c-3-1.9-8.6-4.3-16.9-7.1l-7.9-2.6c-8.6-2.8-15.3-6.7-20-11.6S.2,359.5.2,350.7s1.6-12.6,4.8-17.6c3.2-5,7.5-8.7,12.9-11.3,5.4-2.6,10.9-4.4,16.6-5.6,5.7-1.2,11.5-1.8,17.4-1.8,10.9,0,22,1.3,33.4,4l-.9,24c-9.5-3.6-19.4-5.4-29.8-5.4s-20.3,3.8-20.3,11.4,1.1,5.6,3.3,7.1,6.1,3.1,11.6,4.8c.8.2,1.4.4,1.8.5l10,3.1c9.9,3.3,17.4,7.3,22.4,12s7.5,11.8,7.5,21.3-1.4,12.7-4.3,17.8-6.7,9-11.6,11.8c-4.9,2.8-10.2,4.9-15.9,6.2-5.7,1.3-11.7,2-18.1,2-14.9,0-28.6-1.7-41-5.1Z"/>
          <path class="cls-1" d="M197.7,433.2h-89v-116.8h87.6v22.6h-53.8v24h51.7v22.4h-51.7v25.2h55.2v22.6Z"/>
          <path class="cls-1" d="M211.8,430.1l.9-24.7c10.4,4.8,22.3,7.2,35.7,7.2s9.9-.9,13.8-2.7,6-4.9,6-9.2-1.5-6.2-4.5-8.1c-3-1.9-8.6-4.3-16.9-7.1l-7.9-2.6c-8.6-2.8-15.3-6.7-20-11.6s-7-11.7-7-20.5,1.6-12.6,4.8-17.6c3.2-5,7.5-8.7,12.9-11.3,5.4-2.6,10.9-4.4,16.5-5.6,5.7-1.2,11.5-1.8,17.4-1.8,10.9,0,22,1.3,33.5,4l-.9,24c-9.5-3.6-19.4-5.4-29.8-5.4s-20.3,3.8-20.3,11.4,1.1,5.6,3.3,7.1,6.1,3.1,11.6,4.8c.8.2,1.4.4,1.8.5l10,3.1c9.9,3.3,17.4,7.3,22.4,12,5,4.7,7.5,11.8,7.5,21.3s-1.4,12.7-4.3,17.8c-2.9,5.1-6.7,9-11.6,11.8-4.9,2.8-10.2,4.9-15.9,6.2-5.7,1.3-11.7,2-18.1,2-14.9,0-28.6-1.7-41-5.1Z"/>
          <path class="cls-1" d="M411.6,406.4l1,24c-7.9,3.2-17.7,4.7-29.2,4.7-20.7,0-37.2-5.2-49.7-15.5-12.5-10.3-18.7-25.2-18.7-44.8s6.5-33,19.6-43.9c13.1-10.9,29.4-16.4,48.9-16.4s21.4,1.2,28.9,3.5l-1,24.5c-7.4-2.7-15.1-4-23.3-4s-19.9,3.3-26.7,9.9-10.2,15.4-10.2,26.4,3.3,20.4,9.8,26.7c6.5,6.4,15.6,9.5,27.1,9.5,8.4,0,16.3-1.6,23.6-4.7Z"/>
          <path class="cls-1" d="M436.3,419.7c-10.6-10.3-15.9-25.2-15.9-44.8s5.4-33.5,16.2-44.2,25.7-16,44.6-16,34.2,5.2,44.9,15.7c10.7,10.5,16,25.3,16,44.6s-5.4,33.8-16.2,44.4-25.7,15.8-44.8,15.8c-19.3,0-34.2-5.1-44.8-15.4ZM461.3,399.6c4.2,8.6,10.8,13,19.8,13s9.1-1.2,12.5-3.5,6-5.5,7.7-9.4c1.7-3.9,2.9-7.9,3.6-11.9s1-8.3,1-12.9-.3-8.8-1-12.9-1.9-8-3.6-11.9-4.3-7-7.7-9.4c-3.5-2.3-7.6-3.5-12.5-3.5s-8.7,1.2-12.2,3.6c-3.5,2.4-6,5.5-7.7,9.5s-2.9,7.9-3.7,12-1.1,8.3-1.1,12.6c0,9.5,1.6,17.7,4.9,24.7Z"/>
          <path class="cls-1" d="M569.2,419.7c-10.6-10.3-15.9-25.2-15.9-44.8s5.4-33.5,16.2-44.2,25.7-16,44.6-16,34.2,5.2,44.9,15.7c10.7,10.5,16,25.3,16,44.6s-5.4,33.8-16.2,44.4-25.7,15.8-44.8,15.8c-19.3,0-34.2-5.1-44.8-15.4ZM594.3,399.6c4.2,8.6,10.8,13,19.8,13s9.1-1.2,12.5-3.5,6-5.5,7.7-9.4c1.7-3.9,2.9-7.9,3.6-11.9s1-8.3,1-12.9-.3-8.8-1-12.9-1.9-8-3.6-11.9-4.3-7-7.7-9.4c-3.5-2.3-7.6-3.5-12.5-3.5s-8.7,1.2-12.2,3.6c-3.5,2.4-6,5.5-7.7,9.5-1.7,3.9-2.9,7.9-3.7,12s-1.1,8.3-1.1,12.6c0,9.5,1.6,17.7,4.9,24.7Z"/>
          <path class="cls-1" d="M725.6,433.2h-33.8v-116.8h48.7c35.5,0,53.2,12.7,53.2,38s-4.6,23.3-13.8,30-21.6,10-37.4,10h-17v38.9ZM725.4,338.3v34.3h8.6c3.6,0,6.7-.2,9.4-.7,2.6-.5,5.2-1.3,7.8-2.5s4.5-3,6-5.5c1.4-2.5,2.1-5.6,2.1-9.4,0-10.9-7.8-16.3-23.5-16.3h-10.3Z"/>
          <path class="cls-1" d="M816,433.2h-23.3l45.9-116.8h23.3l-45.9,116.8Z"/>
          <path class="cls-1" d="M897.8,433.2h-30.1v-116.8h51.1l24,79.9,23.5-79.9h51v116.8h-31.2v-96.3l-29.6,96.3h-29.2l-29.4-96.3v96.3h0Z"/>
          <path class="cls-1" d="M1035.8,430.1l.9-24.7c10.4,4.8,22.3,7.2,35.7,7.2s9.9-.9,13.8-2.7,6-4.9,6-9.2-1.5-6.2-4.5-8.1c-3-1.9-8.6-4.3-16.9-7.1l-7.9-2.6c-8.6-2.8-15.3-6.7-20-11.6-4.7-4.9-7-11.7-7-20.5s1.6-12.6,4.8-17.6c3.2-5,7.5-8.7,12.9-11.3,5.4-2.6,10.9-4.4,16.6-5.6,5.7-1.2,11.5-1.8,17.4-1.8,10.9,0,22,1.3,33.4,4l-.9,24c-9.5-3.6-19.4-5.4-29.8-5.4s-20.3,3.8-20.3,11.4,1.1,5.6,3.3,7.1,6.1,3.1,11.6,4.8c.8.2,1.4.4,1.8.5l10,3.1c9.9,3.3,17.4,7.3,22.4,12s7.5,11.8,7.5,21.3-1.4,12.7-4.3,17.8-6.7,9-11.7,11.8c-4.9,2.8-10.2,4.9-15.8,6.2-5.7,1.3-11.7,2-18.1,2-14.9,0-28.6-1.7-41-5.1Z"/>
        </g>
      </g>
    </g>
  </g>
</svg>