<?xml version="1.0" encoding="UTF-8"?>
<svg id="Camada_1" data-name="Camada 1" xmlns="http://www.w3.org/2000/svg" viewBox="0 0 500 96.29">
  <defs>
    <style>
      .cls-1 {
        fill: #fff;
      }
    </style>
  </defs>
  <g>
    <path class="cls-1" d="m62.2,92.12l5.44-14.16h2.02l5.8,14.16h-2.14l-1.65-4.29h-5.92l-1.55,4.29h-1.99Zm4.09-5.81h4.8l-1.48-3.92c-.45-1.19-.79-2.17-1.01-2.94-.18.91-.43,1.81-.76,2.7l-1.56,4.16Z"/>
    <path class="cls-1" d="m92.44,92.12v-1.29c-.65,1.02-1.61,1.53-2.87,1.53-.82,0-1.57-.22-2.26-.68-.69-.45-1.22-1.08-1.59-1.89-.38-.81-.56-1.74-.56-2.78s.17-1.95.51-2.79c.34-.83.85-1.47,1.54-1.92.68-.44,1.45-.67,2.29-.67.62,0,1.17.13,1.65.39.48.26.87.6,1.18,1.02v-5.08h1.73v14.16h-1.61Zm-5.5-5.12c0,1.31.28,2.29.83,2.94.55.65,1.21.98,1.96.98s1.41-.31,1.94-.93c.53-.62.8-1.57.8-2.84,0-1.4-.27-2.43-.81-3.09-.54-.66-1.21-.99-2-.99s-1.42.32-1.94.95c-.52.63-.78,1.63-.78,2.99"/>
    <path class="cls-1" d="m108.7,92.12l-3.9-10.26h1.84l2.2,6.14c.24.66.46,1.35.66,2.07.16-.54.37-1.19.65-1.95l2.28-6.26h1.79l-3.88,10.26h-1.62Z"/>
    <path class="cls-1" d="m123.97,87c0-1.9.53-3.31,1.58-4.22.88-.76,1.96-1.14,3.23-1.14,1.41,0,2.56.46,3.46,1.38.89.93,1.34,2.2,1.34,3.83,0,1.32-.2,2.36-.59,3.11-.4.76-.97,1.34-1.73,1.76-.76.42-1.58.63-2.48.63-1.43,0-2.59-.46-3.48-1.38-.89-.92-1.33-2.25-1.33-3.98m1.79,0c0,1.31.29,2.3.86,2.95.57.65,1.29.98,2.16.98s1.58-.33,2.15-.99c.57-.66.86-1.66.86-3.01,0-1.27-.29-2.23-.86-2.88-.58-.65-1.29-.98-2.15-.98s-1.59.32-2.16.97c-.57.65-.86,1.63-.86,2.95"/>
    <path class="cls-1" d="m144.52,92.97l1.69.25c.07.52.27.9.59,1.14.43.32,1.02.48,1.77.48.81,0,1.43-.16,1.86-.48.44-.32.74-.77.89-1.35.09-.35.13-1.1.13-2.23-.76.89-1.71,1.34-2.84,1.34-1.41,0-2.5-.51-3.27-1.53-.77-1.02-1.16-2.24-1.16-3.66,0-.98.18-1.88.53-2.71.35-.83.87-1.47,1.54-1.92.67-.45,1.46-.68,2.37-.68,1.21,0,2.21.49,2.99,1.47v-1.24h1.6v8.87c0,1.6-.16,2.73-.49,3.4-.33.67-.84,1.19-1.54,1.58-.71.38-1.57.58-2.6.58-1.22,0-2.21-.28-2.97-.83-.75-.55-1.12-1.38-1.09-2.49m1.44-6.16c0,1.35.27,2.33.8,2.95.54.62,1.21.93,2.01.93s1.47-.31,2.01-.92c.54-.62.81-1.58.81-2.89s-.28-2.2-.84-2.84c-.56-.64-1.23-.96-2.01-.96s-1.43.31-1.97.94c-.54.63-.81,1.56-.81,2.8"/>
    <path class="cls-1" d="m171.66,90.86c-.64.55-1.26.94-1.86,1.16s-1.23.34-1.92.34c-1.13,0-1.99-.27-2.6-.83-.6-.55-.91-1.25-.91-2.11,0-.5.12-.96.34-1.38.23-.41.53-.75.9-1,.37-.25.79-.44,1.25-.57.34-.09.86-.18,1.55-.26,1.4-.17,2.44-.37,3.1-.6,0-.24,0-.39,0-.45,0-.71-.16-1.21-.49-1.5-.44-.39-1.1-.59-1.98-.59-.82,0-1.42.14-1.81.43-.39.29-.68.79-.86,1.52l-1.7-.23c.16-.73.41-1.32.76-1.76.35-.45.86-.79,1.53-1.03.67-.24,1.45-.36,2.33-.36s1.59.1,2.13.31c.55.21.95.46,1.21.78.26.31.44.71.54,1.18.06.3.09.83.09,1.61v2.32c0,1.62.04,2.64.11,3.07.07.43.22.84.44,1.23h-1.81c-.18-.36-.3-.78-.35-1.27m-.14-3.88c-.63.26-1.58.48-2.84.66-.72.1-1.22.22-1.52.35-.3.13-.52.32-.69.57-.16.25-.24.52-.24.83,0,.46.18.85.53,1.16.35.31.86.46,1.54.46s1.27-.15,1.79-.44c.52-.29.9-.69,1.15-1.2.19-.39.28-.97.28-1.74v-.64Z"/>
    <path class="cls-1" d="m191.68,92.12v-1.29c-.65,1.02-1.61,1.53-2.87,1.53-.82,0-1.57-.22-2.26-.68-.69-.45-1.22-1.08-1.59-1.89-.38-.81-.56-1.74-.56-2.78s.17-1.95.51-2.79.85-1.47,1.54-1.92c.68-.44,1.45-.67,2.29-.67.62,0,1.17.13,1.65.39.48.26.87.6,1.18,1.02v-5.08h1.73v14.16h-1.61Zm-5.5-5.12c0,1.31.28,2.29.83,2.94.55.65,1.21.98,1.96.98s1.41-.31,1.94-.93c.53-.62.8-1.57.8-2.84,0-1.4-.27-2.43-.81-3.09-.54-.66-1.21-.99-2-.99s-1.42.32-1.94.95c-.52.63-.78,1.63-.78,2.99"/>
    <path class="cls-1" d="m204.5,87c0-1.9.53-3.31,1.58-4.22.88-.76,1.96-1.14,3.23-1.14,1.41,0,2.56.46,3.46,1.38.89.93,1.34,2.2,1.34,3.83,0,1.32-.2,2.36-.59,3.11-.4.76-.97,1.34-1.73,1.76-.76.42-1.58.63-2.48.63-1.43,0-2.59-.46-3.48-1.38-.89-.92-1.33-2.25-1.33-3.98m1.79,0c0,1.31.29,2.3.86,2.95.57.65,1.29.98,2.16.98s1.58-.33,2.15-.99c.57-.66.86-1.66.86-3.01,0-1.27-.29-2.23-.86-2.88-.58-.65-1.29-.98-2.15-.98s-1.59.32-2.16.97c-.57.65-.86,1.63-.86,2.95"/>
    <path class="cls-1" d="m224.62,89.06l1.72-.27c.1.69.37,1.22.81,1.58.44.37,1.06.55,1.85.55s1.39-.16,1.78-.49c.39-.33.58-.71.58-1.15,0-.39-.17-.7-.51-.93-.24-.16-.83-.35-1.78-.59-1.27-.32-2.16-.6-2.65-.84-.49-.23-.87-.56-1.12-.97-.25-.41-.38-.88-.38-1.38,0-.46.1-.88.31-1.27.21-.39.5-.71.86-.97.27-.2.64-.37,1.11-.51.47-.14.97-.21,1.5-.21.8,0,1.51.12,2.12.35.61.23,1.06.54,1.35.94.29.4.49.93.6,1.59l-1.7.23c-.08-.53-.3-.94-.67-1.24-.37-.3-.89-.45-1.57-.45-.8,0-1.37.13-1.71.4-.34.26-.51.57-.51.93,0,.22.07.43.21.61.14.19.36.34.67.46.17.06.69.21,1.53.45,1.23.33,2.09.6,2.58.81.49.21.87.51,1.14.91.28.4.41.89.41,1.49s-.17,1.13-.51,1.64c-.34.51-.83.91-1.46,1.19-.64.28-1.36.42-2.16.42-1.33,0-2.35-.28-3.05-.83-.7-.55-1.15-1.37-1.34-2.46"/>
    <path class="cls-1" d="m256.78,92.12l5.44-14.16h2.02l5.79,14.16h-2.13l-1.65-4.29h-5.92l-1.55,4.29h-1.99Zm4.09-5.81h4.8l-1.48-3.92c-.45-1.19-.79-2.17-1.01-2.94-.18.91-.43,1.81-.76,2.7l-1.56,4.16Z"/>
    <path class="cls-1" d="m279.88,89.06l1.72-.27c.1.69.37,1.22.81,1.58.44.37,1.06.55,1.85.55s1.39-.16,1.78-.49c.39-.33.58-.71.58-1.15,0-.39-.17-.7-.51-.93-.24-.16-.83-.35-1.78-.59-1.27-.32-2.16-.6-2.65-.84-.49-.23-.87-.56-1.12-.97-.25-.41-.38-.88-.38-1.38,0-.46.1-.88.31-1.27.21-.39.5-.71.86-.97.27-.2.64-.37,1.11-.51.47-.14.97-.21,1.5-.21.8,0,1.51.12,2.12.35.61.23,1.06.54,1.35.94.29.4.49.93.6,1.59l-1.7.23c-.08-.53-.3-.94-.67-1.24-.37-.3-.89-.45-1.57-.45-.8,0-1.37.13-1.71.4-.34.26-.51.57-.51.93,0,.22.07.43.21.61.14.19.36.34.67.46.17.06.69.21,1.53.45,1.23.33,2.09.6,2.58.81.49.21.87.51,1.14.91.28.4.41.89.41,1.49s-.17,1.13-.51,1.64c-.34.51-.83.91-1.46,1.19-.64.28-1.36.42-2.16.42-1.33,0-2.35-.28-3.05-.83-.7-.55-1.15-1.37-1.34-2.46"/>
    <path class="cls-1" d="m298.99,89.06l1.72-.27c.1.69.37,1.22.81,1.58.44.37,1.06.55,1.85.55s1.39-.16,1.78-.49c.39-.33.58-.71.58-1.15,0-.39-.17-.7-.51-.93-.24-.16-.83-.35-1.78-.59-1.27-.32-2.16-.6-2.65-.84-.49-.23-.87-.56-1.12-.97-.25-.41-.38-.88-.38-1.38,0-.46.1-.88.31-1.27.21-.39.5-.71.86-.97.27-.2.64-.37,1.11-.51.47-.14.97-.21,1.5-.21.8,0,1.51.12,2.12.35.61.23,1.06.54,1.35.94.29.4.49.93.6,1.59l-1.7.23c-.08-.53-.3-.94-.67-1.24-.37-.3-.89-.45-1.57-.45-.8,0-1.37.13-1.71.4-.34.26-.51.57-.51.93,0,.22.07.43.21.61.14.19.36.34.67.46.17.06.69.21,1.53.45,1.23.33,2.09.6,2.58.81.49.21.87.51,1.14.91.28.4.41.89.41,1.49s-.17,1.13-.51,1.64c-.34.51-.83.91-1.46,1.19-.64.28-1.36.42-2.16.42-1.33,0-2.35-.28-3.05-.83-.7-.55-1.15-1.37-1.34-2.46"/>
    <path class="cls-1" d="m318.07,87c0-1.9.53-3.31,1.58-4.22.88-.76,1.96-1.14,3.23-1.14,1.41,0,2.56.46,3.46,1.38.89.93,1.34,2.2,1.34,3.83,0,1.32-.2,2.36-.59,3.11-.4.76-.97,1.34-1.73,1.76-.76.42-1.58.63-2.48.63-1.43,0-2.59-.46-3.48-1.38-.89-.92-1.33-2.25-1.33-3.98m1.79,0c0,1.31.29,2.3.86,2.95.57.65,1.29.98,2.16.98s1.58-.33,2.15-.99c.57-.66.86-1.66.86-3.01,0-1.27-.29-2.23-.86-2.88-.58-.65-1.29-.98-2.15-.98s-1.59.32-2.16.97c-.57.65-.86,1.63-.86,2.95"/>
    <path class="cls-1" d="m345.6,88.37l1.71.22c-.19,1.18-.67,2.1-1.43,2.77-.77.67-1.71,1-2.83,1-1.4,0-2.53-.46-3.39-1.38-.85-.92-1.28-2.23-1.28-3.95,0-1.11.18-2.08.55-2.91.37-.83.93-1.45,1.68-1.87.75-.41,1.57-.62,2.45-.62,1.11,0,2.02.28,2.73.84.71.56,1.16,1.36,1.36,2.4l-1.69.26c-.16-.69-.45-1.21-.86-1.56-.41-.35-.9-.52-1.48-.52-.88,0-1.59.31-2.14.94-.55.63-.82,1.62-.82,2.98s.26,2.38.79,3c.53.63,1.22.94,2.07.94.68,0,1.25-.21,1.71-.63.46-.42.75-1.06.87-1.93"/>
    <path class="cls-1" d="m358.1,77.96h1.74v2h-1.74v-2Zm0,3.9h1.74v10.26h-1.74v-10.26Z"/>
    <path class="cls-1" d="m378.28,90.86c-.64.55-1.26.94-1.86,1.16s-1.23.34-1.92.34c-1.13,0-1.99-.27-2.6-.83-.6-.55-.91-1.25-.91-2.11,0-.5.12-.96.34-1.38.23-.41.53-.75.9-1,.37-.25.79-.44,1.25-.57.34-.09.86-.18,1.55-.26,1.4-.17,2.44-.37,3.1-.6,0-.24,0-.39,0-.45,0-.71-.16-1.21-.49-1.5-.44-.39-1.1-.59-1.98-.59-.82,0-1.42.14-1.81.43-.39.29-.68.79-.86,1.52l-1.7-.23c.16-.73.41-1.32.76-1.76.35-.45.86-.79,1.53-1.03.67-.24,1.45-.36,2.33-.36s1.59.1,2.13.31c.55.21.95.46,1.21.78.26.31.44.71.54,1.18.06.3.09.83.09,1.61v2.32c0,1.62.04,2.64.11,3.07.07.43.22.84.44,1.23h-1.81c-.18-.36-.3-.78-.35-1.27m-.14-3.88c-.63.26-1.58.48-2.84.66-.72.1-1.22.22-1.52.35-.3.13-.52.32-.69.57-.16.25-.24.52-.24.83,0,.46.18.85.53,1.16.35.31.86.46,1.54.46s1.27-.15,1.79-.44c.52-.29.9-.69,1.15-1.2.19-.39.28-.97.28-1.74v-.64Z"/>
    <path class="cls-1" d="m398.31,92.12v-1.29c-.65,1.02-1.61,1.53-2.87,1.53-.82,0-1.57-.22-2.26-.68-.69-.45-1.22-1.08-1.59-1.89-.38-.81-.56-1.74-.56-2.78s.17-1.95.51-2.79.85-1.47,1.54-1.92c.68-.44,1.45-.67,2.29-.67.62,0,1.17.13,1.65.39.48.26.87.6,1.18,1.02v-5.08h1.73v14.16h-1.61Zm-5.5-5.12c0,1.31.28,2.29.83,2.94.55.65,1.21.98,1.96.98s1.41-.31,1.94-.93c.53-.62.8-1.57.8-2.84,0-1.4-.27-2.43-.81-3.09-.54-.66-1.21-.99-2-.99s-1.42.32-1.94.95c-.52.63-.78,1.63-.78,2.99"/>
    <path class="cls-1" d="m411.13,87c0-1.9.53-3.31,1.58-4.22.88-.76,1.96-1.14,3.23-1.14,1.41,0,2.56.46,3.46,1.38.89.93,1.34,2.2,1.34,3.83,0,1.32-.2,2.36-.59,3.11-.4.76-.97,1.34-1.73,1.76-.76.42-1.58.63-2.48.63-1.43,0-2.59-.46-3.48-1.38-.89-.92-1.33-2.25-1.33-3.98m1.79,0c0,1.31.29,2.3.86,2.95.57.65,1.29.98,2.16.98s1.58-.33,2.15-.99c.57-.66.86-1.66.86-3.01,0-1.27-.29-2.23-.86-2.88-.58-.65-1.29-.98-2.15-.98s-1.59.32-2.16.97c-.57.65-.86,1.63-.86,2.95"/>
    <path class="cls-1" d="m431.24,89.06l1.72-.27c.1.69.37,1.22.81,1.58.44.37,1.06.55,1.85.55s1.39-.16,1.78-.49c.39-.33.58-.71.58-1.15,0-.39-.17-.7-.51-.93-.24-.16-.83-.35-1.78-.59-1.27-.32-2.16-.6-2.65-.84-.49-.23-.87-.56-1.12-.97-.25-.41-.38-.88-.38-1.38,0-.46.1-.88.31-1.27.21-.39.5-.71.86-.97.27-.2.64-.37,1.11-.51.47-.14.97-.21,1.5-.21.8,0,1.51.12,2.12.35.61.23,1.06.54,1.35.94.29.4.49.93.6,1.59l-1.7.23c-.08-.53-.3-.94-.67-1.24-.37-.3-.89-.45-1.57-.45-.8,0-1.37.13-1.71.4-.34.26-.51.57-.51.93,0,.22.07.43.21.61.14.19.36.34.67.46.17.06.69.21,1.53.45,1.23.33,2.09.6,2.58.81.49.21.87.51,1.14.91.28.4.41.89.41,1.49s-.17,1.13-.51,1.64c-.34.51-.83.91-1.46,1.19-.64.28-1.36.42-2.16.42-1.33,0-2.35-.28-3.05-.83-.7-.55-1.15-1.37-1.34-2.46"/>
  </g>
  <g>
    <path class="cls-1" d="m12.12,12.58c0-6.29,0-7.45-.08-8.77-.08-1.41-.41-2.07-1.78-2.36-.33-.08-1.04-.13-1.62-.13-.45,0-.7-.08-.7-.37s.29-.37.91-.37c2.2,0,4.8.12,5.96.12,1.7,0,4.1-.12,6-.12,5.17,0,7.04,1.74,7.7,2.36.91.87,2.07,2.73,2.07,4.93,0,5.88-4.3,10.02-10.18,10.02-.21,0-.66,0-.87-.04-.21-.04-.5-.08-.5-.37,0-.33.29-.46,1.16-.46,2.32,0,5.55-2.6,5.55-6.83,0-1.37-.12-4.14-2.44-6.21-1.49-1.37-3.19-1.61-4.14-1.61-.62,0-1.24.04-1.61.17-.21.08-.33.33-.33.79v16.55c0,3.81,0,7.08.21,8.86.12,1.16.37,2.07,1.61,2.23.58.08,1.49.17,2.11.17.45,0,.66.12.66.33,0,.29-.33.41-.79.41-2.73,0-5.34-.12-6.42-.12-.95,0-3.56.12-5.21.12-.54,0-.83-.12-.83-.41,0-.21.17-.33.66-.33.62,0,1.12-.08,1.49-.17.83-.17,1.03-1.08,1.2-2.28.21-1.74.21-5.01.21-8.81v-7.28Z"/>
    <path class="cls-1" d="m38,12.58c0-6.29,0-7.45-.08-8.77-.08-1.41-.5-2.11-1.41-2.32-.46-.12-.99-.17-1.49-.17-.41,0-.66-.08-.66-.41,0-.25.33-.33.99-.33,1.57,0,4.18.12,5.38.12,1.04,0,3.48-.12,5.05-.12.54,0,.87.08.87.33,0,.33-.25.41-.66.41s-.75.04-1.24.13c-1.12.21-1.45.91-1.53,2.36-.08,1.32-.08,2.48-.08,8.77v7.28c0,4.01,0,7.29.17,9.06.12,1.12.41,1.86,1.66,2.03.58.08,1.49.17,2.11.17.46,0,.66.12.66.33,0,.29-.33.41-.79.41-2.73,0-5.34-.12-6.46-.12-.95,0-3.56.12-5.21.12-.54,0-.83-.12-.83-.41,0-.21.17-.33.66-.33.62,0,1.12-.08,1.49-.17.83-.17,1.08-.87,1.2-2.07.21-1.74.21-5.01.21-9.02v-7.28Z"/>
    <path class="cls-1" d="m59.51,1.08C59.63.37,59.88,0,60.21,0s.58.21,1.12,1.28l11.3,23.01L83.89.99C84.22.33,84.42,0,84.8,0s.62.41.74,1.28l3.77,25.33c.37,2.61.79,3.81,2.03,4.18,1.2.37,2.03.41,2.57.41.37,0,.66.04.66.29,0,.33-.5.46-1.08.46-1.03,0-6.75-.08-8.4-.21-.95-.08-1.2-.21-1.2-.46,0-.21.17-.33.46-.45.25-.08.37-.62.21-1.78l-2.48-18h-.17l-9.02,18.46c-.95,1.94-1.16,2.32-1.53,2.32s-.79-.83-1.45-2.07c-.99-1.91-4.26-8.24-4.76-9.4-.37-.87-2.86-5.75-4.31-8.86h-.16l-2.15,16.14c-.08.74-.13,1.28-.13,1.94,0,.79.54,1.16,1.24,1.32.75.16,1.32.21,1.74.21.33,0,.62.08.62.29,0,.37-.37.45-.99.45-1.74,0-3.6-.12-4.35-.12-.79,0-2.77.12-4.1.12-.41,0-.74-.08-.74-.45,0-.21.25-.29.66-.29.33,0,.62,0,1.24-.13,1.16-.25,1.49-1.86,1.7-3.27L59.51,1.08Z"/>
    <path class="cls-1" d="m102.43,12.58c0-6.29,0-7.45-.08-8.77-.08-1.41-.41-2.07-1.78-2.36-.33-.08-1.04-.13-1.61-.13-.46,0-.7-.08-.7-.37s.29-.37.91-.37c1.12,0,2.32.04,3.35.04,1.08.04,2.03.08,2.61.08,1.32,0,9.56,0,10.35-.04.79-.08,1.45-.17,1.78-.25.21-.04.45-.17.66-.17s.25.17.25.37c0,.29-.21.78-.33,2.69-.04.41-.13,2.23-.21,2.73-.04.21-.12.46-.41.46s-.37-.21-.37-.58c0-.29-.04-.99-.25-1.49-.29-.75-.7-1.24-2.77-1.49-.7-.08-5.05-.17-5.88-.17-.21,0-.29.12-.29.41v10.47c0,.29.04.45.29.45.91,0,5.67,0,6.62-.08.99-.08,1.61-.21,1.99-.62.29-.33.45-.54.66-.54.17,0,.29.08.29.33s-.17.91-.33,3.02c-.04.83-.17,2.49-.17,2.77,0,.33,0,.79-.37.79-.29,0-.37-.17-.37-.37-.04-.41-.04-.95-.17-1.49-.21-.83-.79-1.45-2.32-1.61-.79-.08-4.88-.13-5.88-.13-.21,0-.25.17-.25.41v3.27c0,1.41-.04,5.22,0,6.41.08,2.86.74,3.48,4.97,3.48,1.08,0,2.82,0,3.89-.5,1.08-.5,1.57-1.37,1.86-3.06.08-.46.16-.62.45-.62.33,0,.33.33.33.74,0,.95-.33,3.77-.54,4.59-.29,1.08-.66,1.08-2.24,1.08-3.1,0-5.38-.08-7.16-.12-1.78-.08-3.06-.12-4.3-.12-.45,0-1.36,0-2.36.04-.95,0-2.03.08-2.86.08-.54,0-.83-.12-.83-.41,0-.21.17-.33.66-.33.62,0,1.12-.08,1.49-.17.83-.17,1.03-1.08,1.2-2.28.21-1.74.21-5.01.21-8.81v-7.28Z"/>
    <path class="cls-1" d="m131.14,26.24c.08,3.23.62,4.3,1.45,4.6.7.25,1.49.29,2.15.29.46,0,.7.08.7.33,0,.33-.37.41-.95.41-2.69,0-4.34-.12-5.13-.12-.37,0-2.32.12-4.47.12-.54,0-.91-.04-.91-.41,0-.25.25-.33.66-.33.54,0,1.28-.04,1.86-.21,1.08-.33,1.24-1.53,1.28-5.13l.37-24.38c0-.83.12-1.41.54-1.41.46,0,.83.54,1.53,1.28.5.54,6.79,7.16,12.83,13.16,2.82,2.81,8.4,8.77,9.11,9.43h.21l-.42-18.58c-.04-2.52-.41-3.31-1.41-3.73-.62-.25-1.61-.25-2.2-.25-.5,0-.66-.12-.66-.37,0-.33.46-.37,1.08-.37,2.15,0,4.14.12,5.01.12.46,0,2.03-.12,4.06-.12.54,0,.95.04.95.37,0,.25-.25.37-.75.37-.41,0-.74,0-1.24.12-1.16.33-1.49,1.2-1.53,3.52l-.45,26.11c0,.91-.17,1.28-.54,1.28-.46,0-.95-.45-1.41-.91-2.61-2.48-7.9-7.91-12.21-12.17-4.51-4.47-9.1-9.52-9.85-10.31h-.12l.45,17.26Z"/>
    <path class="cls-1" d="m174.47,2.9l-6.17.17c-2.4.08-3.4.29-4.01,1.2-.41.62-.62,1.12-.7,1.45-.08.33-.21.5-.45.5-.29,0-.37-.21-.37-.66,0-.66.79-4.43.87-4.76.13-.54.25-.79.5-.79.33,0,.75.42,1.78.5,1.2.13,2.77.21,4.14.21h16.39c1.32,0,2.23-.12,2.85-.21.62-.12.95-.21,1.12-.21.29,0,.33.25.33.87,0,.87-.13,3.73-.13,4.8-.04.41-.12.66-.37.66-.33,0-.41-.21-.46-.83l-.04-.46c-.08-1.08-1.2-2.23-4.88-2.32l-5.22-.12v16.97c0,3.81,0,7.08.21,8.86.12,1.16.37,2.07,1.61,2.23.58.08,1.49.17,2.11.17.45,0,.66.12.66.33,0,.29-.33.41-.79.41-2.73,0-5.34-.12-6.5-.12-.95,0-3.56.12-5.21.12-.54,0-.83-.12-.83-.41,0-.21.17-.33.66-.33.62,0,1.12-.08,1.49-.17.83-.17,1.08-1.08,1.2-2.28.21-1.74.21-5.01.21-8.81V2.9Z"/>
    <path class="cls-1" d="m199.37,12.58c0-6.29,0-7.45-.08-8.77-.08-1.41-.41-2.07-1.78-2.36-.33-.08-1.04-.13-1.61-.13-.46,0-.7-.08-.7-.37s.29-.37.91-.37c1.12,0,2.32.04,3.35.04,1.08.04,2.03.08,2.61.08,1.32,0,9.56,0,10.35-.04.79-.08,1.45-.17,1.78-.25.21-.04.45-.17.66-.17s.25.17.25.37c0,.29-.21.78-.33,2.69-.04.41-.13,2.23-.21,2.73-.04.21-.12.46-.41.46s-.37-.21-.37-.58c0-.29-.04-.99-.25-1.49-.29-.75-.7-1.24-2.77-1.49-.7-.08-5.05-.17-5.88-.17-.21,0-.29.12-.29.41v10.47c0,.29.04.45.29.45.91,0,5.67,0,6.62-.08.99-.08,1.61-.21,1.99-.62.29-.33.45-.54.66-.54.17,0,.29.08.29.33s-.17.91-.33,3.02c-.04.83-.17,2.49-.17,2.77,0,.33,0,.79-.37.79-.29,0-.37-.17-.37-.37-.04-.41-.04-.95-.17-1.49-.21-.83-.79-1.45-2.32-1.61-.79-.08-4.88-.13-5.88-.13-.21,0-.25.17-.25.41v3.27c0,1.41-.04,5.22,0,6.41.08,2.86.74,3.48,4.97,3.48,1.08,0,2.82,0,3.89-.5,1.08-.5,1.57-1.37,1.86-3.06.08-.46.16-.62.45-.62.33,0,.33.33.33.74,0,.95-.33,3.77-.54,4.59-.29,1.08-.66,1.08-2.24,1.08-3.1,0-5.38-.08-7.16-.12-1.78-.08-3.06-.12-4.3-.12-.45,0-1.36,0-2.36.04-.95,0-2.03.08-2.86.08-.54,0-.83-.12-.83-.41,0-.21.17-.33.66-.33.62,0,1.12-.08,1.49-.17.83-.17,1.03-1.08,1.2-2.28.21-1.74.21-5.01.21-8.81v-7.28Z"/>
    <path class="cls-1" d="m230.3,19.87c0,5.3,0,8.15.87,8.9.7.62,1.78.91,5.01.91,2.2,0,3.81-.04,4.84-1.16.5-.54.99-1.7,1.08-2.49.04-.37.12-.62.45-.62.29,0,.33.21.33.7,0,.45-.29,3.56-.62,4.76-.25.91-.45,1.12-2.61,1.12-2.98,0-5.13-.08-6.99-.13-1.86-.08-3.35-.12-5.05-.12-.45,0-1.36,0-2.36.04-.95,0-2.03.08-2.86.08-.54,0-.83-.12-.83-.41,0-.21.17-.33.66-.33.62,0,1.12-.08,1.49-.17.83-.17,1.03-1.08,1.2-2.28.21-1.74.21-5.01.21-8.81v-7.28c0-6.29,0-7.45-.08-8.77-.08-1.41-.41-2.07-1.78-2.36-.33-.08-.83-.12-1.37-.12-.45,0-.7-.08-.7-.37s.29-.37.91-.37c1.95,0,4.55.13,5.67.13.99,0,4.01-.13,5.63-.13.58,0,.87.08.87.37s-.25.37-.75.37c-.45,0-1.12.04-1.61.12-1.12.21-1.45.91-1.53,2.36-.08,1.32-.08,2.48-.08,8.77v7.28Z"/>
    <path class="cls-1" d="m329.74,1.08c.12-.7.37-1.08.7-1.08s.58.21,1.12,1.28l11.3,23.01,11.26-23.3c.33-.66.54-.99.91-.99s.62.41.74,1.28l3.77,25.33c.37,2.61.79,3.81,2.03,4.18,1.2.37,2.03.41,2.57.41.37,0,.66.04.66.29,0,.33-.5.46-1.08.46-1.03,0-6.75-.08-8.4-.21-.95-.08-1.2-.21-1.2-.46,0-.21.17-.33.46-.45.25-.08.37-.62.21-1.78l-2.48-18h-.17l-9.02,18.46c-.95,1.94-1.16,2.32-1.53,2.32s-.79-.83-1.45-2.07c-.99-1.91-4.26-8.24-4.76-9.4-.37-.87-2.86-5.75-4.31-8.86h-.16l-2.15,16.14c-.08.74-.13,1.28-.13,1.94,0,.79.54,1.16,1.24,1.32.75.16,1.32.21,1.74.21.33,0,.62.08.62.29,0,.37-.37.45-.99.45-1.74,0-3.6-.12-4.35-.12-.79,0-2.77.12-4.1.12-.41,0-.74-.08-.74-.45,0-.21.25-.29.66-.29.33,0,.62,0,1.24-.13,1.16-.25,1.49-1.86,1.7-3.27l4.1-26.65Z"/>
    <path class="cls-1" d="m366.15,16.22C366.15,9.15,370.82,0,383.24,0c10.31,0,16.72,6,16.72,15.48s-6.62,16.97-17.13,16.97c-11.88,0-16.68-8.9-16.68-16.22m28.02.79c0-9.27-5.34-15.02-12.13-15.02-4.76,0-10.18,2.65-10.18,12.95,0,8.61,4.76,15.44,12.71,15.44,2.9,0,9.6-1.41,9.6-13.37"/>
    <path class="cls-1" d="m410.18,27.94c-4.06-3.56-5.13-8.19-5.13-12.21,0-2.82.87-7.7,4.84-11.34C412.87,1.66,416.8,0,422.97,0c2.57,0,4.1.17,6,.41,1.57.21,2.9.58,4.14.7.45.04.62.25.62.5,0,.33-.13.83-.21,2.28-.08,1.37-.04,3.64-.12,4.47-.04.62-.12.95-.5.95-.33,0-.41-.33-.41-.91-.04-1.28-.58-2.73-1.61-3.81-1.37-1.45-4.59-2.56-8.4-2.56-3.6,0-5.96.91-7.78,2.56-3.02,2.77-3.81,6.71-3.81,10.72,0,9.85,7.49,14.73,13.04,14.73,3.68,0,5.92-.41,7.57-2.32.7-.79,1.24-1.99,1.41-2.73.12-.66.21-.83.54-.83.29,0,.37.29.37.62,0,.5-.5,4.1-.91,5.5-.21.7-.37.91-1.08,1.2-1.66.66-4.8.95-7.45.95-5.67,0-10.43-1.24-14.2-4.51"/>
    <path class="cls-1" d="m464.31,13.74c.12,0,.25-.08.25-.29v-.87c0-6.29,0-7.45-.08-8.77-.08-1.41-.41-2.07-1.78-2.36-.33-.08-1.03-.12-1.61-.12-.46,0-.7-.08-.7-.37s.29-.37.87-.37c2.24,0,4.84.12,5.96.12.99,0,3.6-.12,5.21-.12.58,0,.87.08.87.37s-.25.37-.74.37c-.33,0-.7.04-1.2.12-1.12.21-1.45.91-1.53,2.36-.08,1.32-.08,2.48-.08,8.77v7.28c0,3.81,0,7.08.21,8.86.12,1.16.37,2.07,1.61,2.23.58.08,1.49.17,2.11.17.46,0,.66.12.66.33,0,.29-.33.41-.83.41-2.69,0-5.3-.12-6.46-.12-.95,0-3.56.12-5.17.12-.58,0-.87-.12-.87-.41,0-.21.17-.33.66-.33.62,0,1.12-.08,1.49-.17.83-.17,1.04-1.08,1.2-2.28.21-1.74.21-5.01.21-8.81v-3.64c0-.16-.13-.25-.25-.25h-15.81c-.12,0-.25.04-.25.25v3.64c0,3.81,0,7.08.21,8.86.12,1.16.37,2.07,1.61,2.23.58.08,1.49.17,2.11.17.46,0,.66.12.66.33,0,.29-.33.41-.83.41-2.69,0-5.3-.12-6.46-.12-.95,0-3.56.12-5.22.12-.54,0-.83-.12-.83-.41,0-.21.17-.33.66-.33.62,0,1.12-.08,1.49-.17.83-.17,1.03-1.08,1.2-2.28.21-1.74.21-5.01.21-8.81v-7.28c0-6.29,0-7.45-.08-8.77-.08-1.41-.41-2.07-1.78-2.36-.33-.08-1.03-.12-1.62-.12-.45,0-.7-.08-.7-.37s.29-.37.87-.37c2.24,0,4.84.12,5.96.12.99,0,3.6-.12,5.21-.12.58,0,.87.08.87.37s-.25.37-.75.37c-.33,0-.7.04-1.2.12-1.12.21-1.45.91-1.53,2.36-.08,1.32-.08,2.48-.08,8.77v.87c0,.21.13.29.25.29h15.81Z"/>
    <path class="cls-1" d="m483.42,12.58c0-6.29,0-7.45-.08-8.77-.08-1.41-.5-2.11-1.41-2.32-.46-.12-.99-.17-1.49-.17-.41,0-.66-.08-.66-.41,0-.25.33-.33.99-.33,1.57,0,4.18.12,5.38.12,1.04,0,3.48-.12,5.05-.12.54,0,.87.08.87.33,0,.33-.25.41-.66.41s-.75.04-1.24.13c-1.12.21-1.45.91-1.53,2.36-.08,1.32-.08,2.48-.08,8.77v7.28c0,4.01,0,7.29.17,9.06.12,1.12.41,1.86,1.66,2.03.58.08,1.49.17,2.11.17.46,0,.66.12.66.33,0,.29-.33.41-.79.41-2.73,0-5.34-.12-6.46-.12-.95,0-3.56.12-5.21.12-.54,0-.83-.12-.83-.41,0-.21.17-.33.66-.33.62,0,1.12-.08,1.49-.17.83-.17,1.08-.87,1.2-2.07.21-1.74.21-5.01.21-9.02v-7.28Z"/>
    <path class="cls-1" d="m272.64,13.49c-1.74-2.32-2.07-4.01-2.11-5.88-.04-3.27,2.85-7.62,10.06-7.62,2.03,0,3.89.41,5.01.87.7.25.7.58.7,1.08,0,1.37-.33,4.68-.46,5.3-.08.62-.25.7-.5.7s-.29-.16-.29-.79c0-1.08-.29-2.4-1.2-3.48-.83-.99-2.28-1.86-4.59-1.86-1.74,0-4.43,1.2-4.43,4.72,0,3.89,3.56,7.2,6.87,10.88,1.41,1.61,6.5,6.21,7.28,6.91.83-1.16,1.99-3.85,1.99-6.37,0-.62-.17-1.37-.79-1.9-.54-.5-1.41-.62-2.03-.62-.25,0-.5-.08-.5-.33,0-.33.33-.41.66-.41.99,0,2.65.04,4.97.29.78.08,1.41.33,1.41.83,0,3.19-1.7,7.03-4.06,9.81,2.77,2.28,4.63,3.39,5.75,4.06,1.32.79,3.6,1.45,4.43,1.45.37,0,.58.04.58.37,0,.25-.33.37-1.24.37h-3.19c-4.72,0-6.21-.45-9.77-3.19-1.37,1.24-4.14,3.77-9.81,3.77-8.86,0-11.51-5.55-11.51-9.15,0-4.84,4.26-8.61,6.75-9.81m12.95,13.86c-2.4-2.07-6.37-5.96-7.45-7.12-1.08-1.16-3.73-4.14-4.43-5.17-1.41,1.03-2.86,2.98-2.86,6.29,0,5.17,3.64,8.48,7.95,8.48,3.19,0,5.92-1.65,6.79-2.48"/>
  </g>
  <path class="cls-1" d="m500,54.92c0,.63-111.93,1.13-250,1.13S0,55.54,0,54.92s111.93-1.13,250-1.13,250,.51,250,1.13"/>
</svg>